<?xml version="1.0" encoding="UTF-8"?>
<svg id="Capa_1" xmlns="http://www.w3.org/2000/svg" version="1.1" viewBox="0 0 652 254">
  <!-- Generator: Adobe Illustrator 29.1.0, SVG Export Plug-In . SVG Version: 2.1.0 Build 142)  -->
  <defs>
    <style>
      .st0 {
        fill: #fff;
      }

      .st1 {
        fill: #d6a33b;
      }
    </style>
  </defs>
  <g>
    <polygon class="st1" points="172.38 54.59 133.9 32 61.95 74.67 61.95 117.33 97.92 138.25 97.92 96 172.38 54.59"/>
    <polygon class="st1" points="98.34 224 98.34 180.5 135.15 159.58 135.15 117.75 62.37 161.25 62.37 203.08 98.34 224"/>
  </g>
  <g>
    <path class="st0" d="M304.92,139.29v13.63h-56.81v-73.36h55.44v13.62h-38.57v15.93h34.06v13.21h-34.06v16.98h39.93Z"/>
    <path class="st0" d="M374.92,120.64v32.28h-16.35v-29.77c0-9.12-4.19-13.31-11.42-13.31-7.86,0-13.52,4.82-13.52,15.2v27.88h-16.35v-56.39h15.62v6.6c4.4-4.82,11.01-7.44,18.66-7.44,13.31,0,23.37,7.76,23.37,24.94Z"/>
    <path class="st0" d="M386.13,124.73c0-16.98,13.1-29.03,31.44-29.03,11.84,0,21.17,5.14,25.26,14.36l-12.68,6.81c-3.04-5.34-7.55-7.76-12.68-7.76-8.28,0-14.78,5.76-14.78,15.62s6.5,15.62,14.78,15.62c5.14,0,9.64-2.3,12.68-7.75l12.68,6.92c-4.09,9.01-13.42,14.25-25.26,14.25-18.34,0-31.44-12.05-31.44-29.03Z"/>
    <path class="st0" d="M502.14,120.75v32.18h-15.3v-7.02c-3.04,5.13-8.91,7.86-17.19,7.86-13.21,0-21.07-7.34-21.07-17.08s7.02-16.87,24.21-16.87h13c0-7.02-4.19-11.11-13-11.11-5.97,0-12.16,1.99-16.24,5.24l-5.87-11.42c6.18-4.4,15.3-6.81,24.31-6.81,17.19,0,27.15,7.97,27.15,25.05ZM485.79,135.1v-5.76h-11.21c-7.65,0-10.06,2.83-10.06,6.6,0,4.09,3.46,6.81,9.22,6.81,5.45,0,10.17-2.52,12.05-7.65Z"/>
    <path class="st0" d="M499.61,170.95l4.4-11.84c1.78,1.26,4.19,1.99,6.92,1.99,4.09,0,6.71-2.62,6.71-8.18v-56.39h16.35v56.28c0,13-7.65,21.28-21.28,21.28-5.03,0-9.96-.94-13.1-3.14ZM515.65,79.56c0-5.14,4.09-9.12,10.17-9.12s10.17,3.77,10.17,8.8c0,5.45-4.09,9.43-10.17,9.43s-10.17-3.98-10.17-9.12Z"/>
    <path class="st0" d="M604,129.34h-42.66c1.57,7.02,7.55,11.32,16.14,11.32,5.97,0,10.27-1.78,14.15-5.45l8.7,9.43c-5.24,5.97-13.1,9.12-23.27,9.12-19.49,0-32.18-12.26-32.18-29.03s12.89-29.03,30.08-29.03,29.35,11.11,29.35,29.24c0,1.26-.21,3.04-.32,4.4ZM561.13,119.8h27.77c-1.15-7.13-6.5-11.74-13.83-11.74s-12.79,4.51-13.94,11.74Z"/>
  </g>
  <g>
    <path class="st0" d="M245.25,173.82l.46-.9c.79.77,2.19,1.34,3.64,1.34,2.07,0,2.97-.87,2.97-1.96,0-3.03-6.8-1.17-6.8-5.25,0-1.62,1.26-3.03,4.07-3.03,1.25,0,2.54.36,3.42.98l-.39.93c-.95-.61-2.05-.92-3.03-.92-2.02,0-2.92.9-2.92,2,0,3.03,6.8,1.2,6.8,5.22,0,1.63-1.29,3.01-4.12,3.01-1.66,0-3.28-.58-4.1-1.44Z"/>
    <path class="st0" d="M255.03,169.64c0-3.22,2.46-5.62,5.81-5.62s5.79,2.38,5.79,5.62-2.48,5.62-5.79,5.62-5.81-2.4-5.81-5.62ZM265.46,169.64c0-2.63-1.97-4.58-4.62-4.58s-4.65,1.94-4.65,4.58,1.99,4.58,4.65,4.58,4.62-1.94,4.62-4.58Z"/>
    <path class="st0" d="M269.24,164.12h1.17v10.03h6.18v1.01h-7.35v-11.04Z"/>
    <path class="st0" d="M278.24,170.44v-6.33h1.17v6.28c0,2.62,1.23,3.82,3.38,3.82s3.39-1.2,3.39-3.82v-6.28h1.14v6.33c0,3.17-1.7,4.81-4.53,4.81s-4.54-1.64-4.54-4.81Z"/>
    <path class="st0" d="M289.84,169.64c0-3.23,2.46-5.62,5.79-5.62,1.61,0,3.06.54,4.04,1.61l-.74.74c-.9-.92-2-1.31-3.27-1.31-2.67,0-4.67,1.96-4.67,4.58s2,4.58,4.67,4.58c1.26,0,2.37-.4,3.27-1.32l.74.74c-.98,1.07-2.43,1.62-4.05,1.62-3.31,0-5.77-2.38-5.77-5.62Z"/>
    <path class="st0" d="M302.16,164.12h1.17v11.04h-1.17v-11.04Z"/>
    <path class="st0" d="M305.95,169.64c0-3.22,2.46-5.62,5.81-5.62s5.79,2.38,5.79,5.62-2.48,5.62-5.79,5.62-5.81-2.4-5.81-5.62ZM316.38,169.64c0-2.63-1.97-4.58-4.62-4.58s-4.65,1.94-4.65,4.58,1.99,4.58,4.65,4.58,4.62-1.94,4.62-4.58Z"/>
    <path class="st0" d="M329.39,164.12v11.04h-.96l-7.1-8.96v8.96h-1.17v-11.04h.96l7.12,8.96v-8.96h1.15Z"/>
    <path class="st0" d="M340.79,174.15v1.01h-7.81v-11.04h7.57v1.01h-6.41v3.93h5.71v.99h-5.71v4.1h6.64Z"/>
    <path class="st0" d="M342.48,173.82l.46-.9c.79.77,2.19,1.34,3.65,1.34,2.07,0,2.97-.87,2.97-1.96,0-3.03-6.8-1.17-6.8-5.25,0-1.62,1.26-3.03,4.07-3.03,1.25,0,2.54.36,3.42.98l-.39.93c-.95-.61-2.05-.92-3.03-.92-2.02,0-2.92.9-2.92,2,0,3.03,6.8,1.2,6.8,5.22,0,1.63-1.29,3.01-4.12,3.01-1.66,0-3.28-.58-4.1-1.44Z"/>
    <path class="st0" d="M356.39,169.64c0-3.23,2.46-5.62,5.79-5.62,1.61,0,3.06.54,4.04,1.61l-.74.74c-.9-.92-2-1.31-3.27-1.31-2.67,0-4.67,1.96-4.67,4.58s2,4.58,4.67,4.58c1.26,0,2.37-.4,3.27-1.32l.74.74c-.98,1.07-2.43,1.62-4.06,1.62-3.31,0-5.77-2.38-5.77-5.62Z"/>
    <path class="st0" d="M367.5,169.64c0-3.22,2.46-5.62,5.81-5.62s5.79,2.38,5.79,5.62-2.48,5.62-5.79,5.62-5.81-2.4-5.81-5.62ZM377.93,169.64c0-2.63-1.97-4.58-4.62-4.58s-4.66,1.94-4.66,4.58,1.99,4.58,4.66,4.58,4.62-1.94,4.62-4.58Z"/>
    <path class="st0" d="M390.94,164.12v11.04h-.96l-7.1-8.96v8.96h-1.17v-11.04h.96l7.12,8.96v-8.96h1.15Z"/>
    <path class="st0" d="M393.48,173.82l.46-.9c.79.77,2.19,1.34,3.65,1.34,2.06,0,2.96-.87,2.96-1.96,0-3.03-6.8-1.17-6.8-5.25,0-1.62,1.26-3.03,4.07-3.03,1.24,0,2.54.36,3.42.98l-.39.93c-.95-.61-2.05-.92-3.03-.92-2.02,0-2.92.9-2.92,2,0,3.03,6.8,1.2,6.8,5.22,0,1.63-1.29,3.01-4.12,3.01-1.66,0-3.28-.58-4.1-1.44Z"/>
    <path class="st0" d="M406.22,165.13h-3.88v-1.01h8.93v1.01h-3.88v10.03h-1.17v-10.03Z"/>
    <path class="st0" d="M420.67,175.16l-2.52-3.55c-.28.03-.57.05-.88.05h-2.96v3.5h-1.17v-11.04h4.13c2.81,0,4.51,1.42,4.51,3.79,0,1.73-.91,2.95-2.52,3.47l2.7,3.78h-1.28ZM420.61,167.9c0-1.77-1.17-2.78-3.38-2.78h-2.93v5.54h2.93c2.21,0,3.38-1.03,3.38-2.76Z"/>
    <path class="st0" d="M424.44,170.44v-6.33h1.17v6.28c0,2.62,1.23,3.82,3.38,3.82s3.39-1.2,3.39-3.82v-6.28h1.14v6.33c0,3.17-1.7,4.81-4.53,4.81s-4.54-1.64-4.54-4.81Z"/>
    <path class="st0" d="M436.05,169.64c0-3.23,2.46-5.62,5.79-5.62,1.61,0,3.06.54,4.04,1.61l-.74.74c-.9-.92-2-1.31-3.27-1.31-2.67,0-4.67,1.96-4.67,4.58s2,4.58,4.67,4.58c1.26,0,2.37-.4,3.27-1.32l.74.74c-.98,1.07-2.43,1.62-4.06,1.62-3.31,0-5.77-2.38-5.77-5.62Z"/>
    <path class="st0" d="M450.37,165.13h-3.88v-1.01h8.93v1.01h-3.88v10.03h-1.17v-10.03Z"/>
    <path class="st0" d="M457.28,164.12h1.17v11.04h-1.17v-11.04Z"/>
    <path class="st0" d="M471.1,164.12l-4.89,11.04h-1.15l-4.89-11.04h1.26l4.23,9.59,4.26-9.59h1.18Z"/>
    <path class="st0" d="M479.29,172.21h-6.15l-1.33,2.95h-1.22l5.05-11.04h1.15l5.05,11.04h-1.23l-1.32-2.95ZM478.86,171.26l-2.65-5.93-2.65,5.93h5.3Z"/>
    <path class="st0" d="M482.61,173.82l.46-.9c.79.77,2.19,1.34,3.64,1.34,2.07,0,2.97-.87,2.97-1.96,0-3.03-6.8-1.17-6.8-5.25,0-1.62,1.26-3.03,4.07-3.03,1.25,0,2.54.36,3.42.98l-.4.93c-.95-.61-2.05-.92-3.03-.92-2.02,0-2.92.9-2.92,2,0,3.03,6.8,1.2,6.8,5.22,0,1.63-1.29,3.01-4.12,3.01-1.66,0-3.28-.58-4.1-1.44Z"/>
  </g>
</svg>