<svg xmlns="http://www.w3.org/2000/svg" xmlns:xlink="http://www.w3.org/1999/xlink" width="225" zoomAndPan="magnify" viewBox="0 0 168.75 190.499994" height="254" preserveAspectRatio="xMidYMid meet" version="1.0"><defs><clipPath id="72fad9992c"><path d="M 0.0976562 0 L 168.40625 0 L 168.40625 190 L 0.0976562 190 Z M 0.0976562 0 " clip-rule="nonzero"/></clipPath></defs><g clip-path="url(#72fad9992c)"><path fill="#ffffff" d="M 0.0976562 0 L 168.40625 0 L 168.40625 190 L 0.0976562 190 Z M 0.0976562 0 " fill-opacity="1" fill-rule="nonzero"/><path fill="#ffffff" d="M 0.0976562 0 L 168.40625 0 L 168.40625 190 L 0.0976562 190 Z M 0.0976562 0 " fill-opacity="1" fill-rule="nonzero"/></g><path fill="#d6a33b" d="M 129.242188 40.71875 L 100.410156 23.820312 L 46.507812 55.738281 L 46.507812 87.648438 L 73.457031 103.300781 L 73.457031 71.695312 Z M 129.242188 40.71875 " fill-opacity="1" fill-rule="nonzero"/><path fill="#d6a33b" d="M 73.769531 167.441406 L 73.769531 134.902344 L 101.347656 119.253906 L 101.347656 87.964844 L 46.824219 120.503906 L 46.824219 151.792969 Z M 73.769531 167.441406 " fill-opacity="1" fill-rule="nonzero"/></svg>