<svg xmlns="http://www.w3.org/2000/svg" xmlns:xlink="http://www.w3.org/1999/xlink" width="463" zoomAndPan="magnify" viewBox="0 0 347.25 125.249995" height="167" preserveAspectRatio="xMidYMid meet" version="1.0"><path fill="#d6a33b" d="M 71.832031 14.988281 L 47.632812 0.796875 L 2.382812 27.601562 L 2.382812 54.394531 L 25.003906 67.535156 L 25.003906 40.996094 Z M 71.832031 14.988281 " fill-opacity="1" fill-rule="nonzero"/><path fill="#d6a33b" d="M 25.269531 121.398438 L 25.269531 94.074219 L 48.417969 80.933594 L 48.417969 54.660156 L 2.648438 81.984375 L 2.648438 108.257812 Z M 25.269531 121.398438 " fill-opacity="1" fill-rule="nonzero"/><path fill="#ffffff" d="M 155.1875 68.1875 L 155.1875 76.75 L 119.460938 76.75 L 119.460938 30.671875 L 154.324219 30.671875 L 154.324219 39.226562 L 130.070312 39.226562 L 130.070312 49.234375 L 151.488281 49.234375 L 151.488281 57.53125 L 130.070312 57.53125 L 130.070312 68.195312 L 155.179688 68.195312 Z M 155.1875 68.1875 " fill-opacity="1" fill-rule="nonzero"/><path fill="#ffffff" d="M 199.210938 56.476562 L 199.210938 76.75 L 188.929688 76.75 L 188.929688 58.050781 C 188.929688 52.324219 186.292969 49.691406 181.746094 49.691406 C 176.804688 49.691406 173.242188 52.71875 173.242188 59.238281 L 173.242188 76.75 L 162.960938 76.75 L 162.960938 41.332031 L 172.785156 41.332031 L 172.785156 45.476562 C 175.550781 42.449219 179.707031 40.804688 184.519531 40.804688 C 192.890625 40.804688 199.21875 45.675781 199.21875 56.46875 Z M 199.210938 56.476562 " fill-opacity="1" fill-rule="nonzero"/><path fill="#ffffff" d="M 206.261719 59.042969 C 206.261719 48.378906 214.5 40.808594 226.035156 40.808594 C 233.480469 40.808594 239.347656 44.039062 241.917969 49.828125 L 233.945312 54.105469 C 232.035156 50.753906 229.195312 49.234375 225.96875 49.234375 C 220.761719 49.234375 216.675781 52.851562 216.675781 59.042969 C 216.675781 65.238281 220.761719 68.855469 225.96875 68.855469 C 229.203125 68.855469 232.035156 67.410156 233.945312 63.988281 L 241.917969 68.332031 C 239.347656 73.992188 233.480469 77.285156 226.035156 77.285156 C 214.5 77.285156 206.261719 69.714844 206.261719 59.050781 Z M 206.261719 59.042969 " fill-opacity="1" fill-rule="nonzero"/><path fill="#ffffff" d="M 279.21875 56.542969 L 279.21875 76.757812 L 269.597656 76.757812 L 269.597656 72.347656 C 267.6875 75.570312 263.992188 77.285156 258.785156 77.285156 C 250.480469 77.285156 245.535156 72.675781 245.535156 66.554688 C 245.535156 60.4375 249.949219 55.960938 260.761719 55.960938 L 268.9375 55.960938 C 268.9375 51.550781 266.300781 48.980469 260.761719 48.980469 C 257.007812 48.980469 253.113281 50.230469 250.546875 52.273438 L 246.855469 45.097656 C 250.742188 42.335938 256.480469 40.820312 262.144531 40.820312 C 272.957031 40.820312 279.21875 45.828125 279.21875 56.554688 Z M 268.9375 65.558594 L 268.9375 61.941406 L 261.886719 61.941406 C 257.074219 61.941406 255.558594 63.71875 255.558594 66.085938 C 255.558594 68.652344 257.738281 70.363281 261.359375 70.363281 C 264.785156 70.363281 267.753906 68.78125 268.9375 65.558594 Z M 268.9375 65.558594 " fill-opacity="1" fill-rule="nonzero"/><path fill="#ffffff" d="M 277.628906 88.074219 L 280.394531 80.640625 C 281.515625 81.429688 283.03125 81.890625 284.746094 81.890625 C 287.320312 81.890625 288.96875 80.242188 288.96875 76.75 L 288.96875 41.332031 L 299.25 41.332031 L 299.25 76.683594 C 299.25 84.847656 294.4375 90.046875 285.867188 90.046875 C 282.703125 90.046875 279.601562 89.457031 277.628906 88.074219 Z M 287.714844 30.671875 C 287.714844 27.441406 290.289062 24.941406 294.113281 24.941406 C 297.9375 24.941406 300.507812 27.3125 300.507812 30.46875 C 300.507812 33.894531 297.9375 36.394531 294.113281 36.394531 C 290.289062 36.394531 287.714844 33.894531 287.714844 30.664062 Z M 287.714844 30.671875 " fill-opacity="1" fill-rule="nonzero"/><path fill="#ffffff" d="M 343.28125 61.941406 L 316.449219 61.941406 C 317.4375 66.347656 321.199219 69.050781 326.601562 69.050781 C 330.355469 69.050781 333.058594 67.933594 335.5 65.625 L 340.972656 71.550781 C 337.675781 75.300781 332.734375 77.277344 326.335938 77.277344 C 314.078125 77.277344 306.097656 69.578125 306.097656 59.042969 C 306.097656 48.511719 314.207031 40.808594 325.015625 40.808594 C 335.828125 40.808594 343.476562 47.789062 343.476562 59.175781 C 343.476562 59.96875 343.34375 61.085938 343.273438 61.941406 Z M 316.320312 55.945312 L 333.785156 55.945312 C 333.058594 51.46875 329.695312 48.574219 325.085938 48.574219 C 320.476562 48.574219 317.042969 51.40625 316.320312 55.945312 Z M 316.320312 55.945312 " fill-opacity="1" fill-rule="nonzero"/><path fill="#ffffff" d="M 117.660156 89.878906 L 117.949219 89.3125 C 118.445312 89.796875 119.328125 90.15625 120.238281 90.15625 C 121.542969 90.15625 122.105469 89.609375 122.105469 88.925781 C 122.105469 87.019531 117.832031 88.1875 117.832031 85.625 C 117.832031 84.609375 118.625 83.722656 120.390625 83.722656 C 121.175781 83.722656 121.988281 83.949219 122.542969 84.339844 L 122.296875 84.921875 C 121.699219 84.539062 121.007812 84.34375 120.390625 84.34375 C 119.121094 84.34375 118.554688 84.910156 118.554688 85.601562 C 118.554688 87.503906 122.832031 86.355469 122.832031 88.878906 C 122.832031 89.902344 122.019531 90.769531 120.238281 90.769531 C 119.195312 90.769531 118.175781 90.40625 117.660156 89.867188 Z M 117.660156 89.878906 " fill-opacity="1" fill-rule="nonzero"/><path fill="#ffffff" d="M 123.8125 87.253906 C 123.8125 85.230469 125.359375 83.722656 127.464844 83.722656 C 129.574219 83.722656 131.105469 85.21875 131.105469 87.253906 C 131.105469 89.289062 129.546875 90.78125 127.464844 90.78125 C 125.382812 90.78125 123.8125 89.277344 123.8125 87.253906 Z M 130.371094 87.253906 C 130.371094 85.601562 129.132812 84.375 127.464844 84.375 C 125.800781 84.375 124.542969 85.59375 124.542969 87.253906 C 124.542969 88.910156 125.792969 90.128906 127.464844 90.128906 C 129.136719 90.128906 130.371094 88.910156 130.371094 87.253906 Z M 130.371094 87.253906 " fill-opacity="1" fill-rule="nonzero"/><path fill="#ffffff" d="M 132.75 83.785156 L 133.484375 83.785156 L 133.484375 90.085938 L 137.371094 90.085938 L 137.371094 90.71875 L 132.75 90.71875 Z M 132.75 83.785156 " fill-opacity="1" fill-rule="nonzero"/><path fill="#ffffff" d="M 138.410156 87.753906 L 138.410156 83.78125 L 139.144531 83.78125 L 139.144531 87.722656 C 139.144531 89.371094 139.917969 90.125 141.269531 90.125 C 142.621094 90.125 143.402344 89.371094 143.402344 87.722656 L 143.402344 83.78125 L 144.117188 83.78125 L 144.117188 87.753906 C 144.117188 89.746094 143.050781 90.777344 141.269531 90.777344 C 139.492188 90.777344 138.414062 89.746094 138.414062 87.753906 Z M 138.410156 87.753906 " fill-opacity="1" fill-rule="nonzero"/><path fill="#ffffff" d="M 145.703125 87.253906 C 145.703125 85.222656 147.25 83.722656 149.34375 83.722656 C 150.359375 83.722656 151.269531 84.0625 151.886719 84.734375 L 151.421875 85.199219 C 150.855469 84.621094 150.164062 84.375 149.363281 84.375 C 147.683594 84.375 146.425781 85.605469 146.425781 87.253906 C 146.425781 88.898438 147.683594 90.128906 149.363281 90.128906 C 150.15625 90.128906 150.855469 89.878906 151.421875 89.300781 L 151.886719 89.765625 C 151.269531 90.4375 150.359375 90.78125 149.339844 90.78125 C 147.257812 90.78125 145.710938 89.289062 145.710938 87.253906 Z M 145.703125 87.253906 " fill-opacity="1" fill-rule="nonzero"/><path fill="#ffffff" d="M 153.453125 83.785156 L 154.1875 83.785156 L 154.1875 90.71875 L 153.453125 90.71875 Z M 153.453125 83.785156 " fill-opacity="1" fill-rule="nonzero"/><path fill="#ffffff" d="M 155.835938 87.253906 C 155.835938 85.230469 157.382812 83.722656 159.488281 83.722656 C 161.597656 83.722656 163.128906 85.21875 163.128906 87.253906 C 163.128906 89.289062 161.570312 90.78125 159.488281 90.78125 C 157.40625 90.78125 155.835938 89.277344 155.835938 87.253906 Z M 162.394531 87.253906 C 162.394531 85.601562 161.15625 84.375 159.488281 84.375 C 157.824219 84.375 156.566406 85.59375 156.566406 87.253906 C 156.566406 88.910156 157.816406 90.128906 159.488281 90.128906 C 161.164062 90.128906 162.394531 88.910156 162.394531 87.253906 Z M 162.394531 87.253906 " fill-opacity="1" fill-rule="nonzero"/><path fill="#ffffff" d="M 170.578125 83.785156 L 170.578125 90.71875 L 169.972656 90.71875 L 165.507812 85.09375 L 165.507812 90.71875 L 164.773438 90.71875 L 164.773438 83.785156 L 165.375 83.785156 L 169.855469 89.414062 L 169.855469 83.785156 Z M 170.578125 83.785156 " fill-opacity="1" fill-rule="nonzero"/><path fill="#ffffff" d="M 177.746094 90.085938 L 177.746094 90.71875 L 172.835938 90.71875 L 172.835938 83.785156 L 177.59375 83.785156 L 177.59375 84.421875 L 173.5625 84.421875 L 173.5625 86.890625 L 177.15625 86.890625 L 177.15625 87.511719 L 173.5625 87.511719 L 173.5625 90.085938 Z M 177.746094 90.085938 " fill-opacity="1" fill-rule="nonzero"/><path fill="#ffffff" d="M 178.808594 89.878906 L 179.097656 89.3125 C 179.59375 89.796875 180.476562 90.15625 181.394531 90.15625 C 182.695312 90.15625 183.261719 89.609375 183.261719 88.925781 C 183.261719 87.019531 178.984375 88.1875 178.984375 85.625 C 178.984375 84.609375 179.777344 83.722656 181.546875 83.722656 C 182.332031 83.722656 183.140625 83.949219 183.695312 84.339844 L 183.449219 84.921875 C 182.851562 84.539062 182.160156 84.34375 181.546875 84.34375 C 180.273438 84.34375 179.707031 84.910156 179.707031 85.601562 C 179.707031 87.503906 183.984375 86.355469 183.984375 88.878906 C 183.984375 89.902344 183.171875 90.769531 181.394531 90.769531 C 180.351562 90.769531 179.332031 90.40625 178.816406 89.867188 Z M 178.808594 89.878906 " fill-opacity="1" fill-rule="nonzero"/><path fill="#ffffff" d="M 187.558594 87.253906 C 187.558594 85.222656 189.105469 83.722656 191.199219 83.722656 C 192.210938 83.722656 193.125 84.0625 193.738281 84.734375 L 193.273438 85.199219 C 192.707031 84.621094 192.015625 84.375 191.21875 84.375 C 189.539062 84.375 188.28125 85.605469 188.28125 87.253906 C 188.28125 88.898438 189.539062 90.128906 191.21875 90.128906 C 192.011719 90.128906 192.707031 89.878906 193.273438 89.300781 L 193.738281 89.765625 C 193.125 90.4375 192.210938 90.78125 191.1875 90.78125 C 189.105469 90.78125 187.558594 89.289062 187.558594 87.253906 Z M 187.558594 87.253906 " fill-opacity="1" fill-rule="nonzero"/><path fill="#ffffff" d="M 194.542969 87.253906 C 194.542969 85.230469 196.089844 83.722656 198.199219 83.722656 C 200.304688 83.722656 201.839844 85.21875 201.839844 87.253906 C 201.839844 89.289062 200.28125 90.78125 198.199219 90.78125 C 196.117188 90.78125 194.542969 89.277344 194.542969 87.253906 Z M 201.105469 87.253906 C 201.105469 85.601562 199.863281 84.375 198.199219 84.375 C 196.53125 84.375 195.269531 85.59375 195.269531 87.253906 C 195.269531 88.910156 196.519531 90.128906 198.199219 90.128906 C 199.878906 90.128906 201.105469 88.910156 201.105469 87.253906 Z M 201.105469 87.253906 " fill-opacity="1" fill-rule="nonzero"/><path fill="#ffffff" d="M 209.285156 83.785156 L 209.285156 90.71875 L 208.683594 90.71875 L 204.21875 85.09375 L 204.21875 90.71875 L 203.480469 90.71875 L 203.480469 83.785156 L 204.085938 83.785156 L 208.5625 89.414062 L 208.5625 83.785156 Z M 209.285156 83.785156 " fill-opacity="1" fill-rule="nonzero"/><path fill="#ffffff" d="M 210.882812 89.878906 L 211.171875 89.3125 C 211.667969 89.796875 212.550781 90.15625 213.46875 90.15625 C 214.761719 90.15625 215.328125 89.609375 215.328125 88.925781 C 215.328125 87.019531 211.054688 88.1875 211.054688 85.625 C 211.054688 84.609375 211.84375 83.722656 213.613281 83.722656 C 214.390625 83.722656 215.210938 83.949219 215.761719 84.339844 L 215.519531 84.921875 C 214.921875 84.539062 214.230469 84.34375 213.613281 84.34375 C 212.34375 84.34375 211.777344 84.910156 211.777344 85.601562 C 211.777344 87.503906 216.054688 86.355469 216.054688 88.878906 C 216.054688 89.902344 215.242188 90.769531 213.460938 90.769531 C 212.417969 90.769531 211.398438 90.40625 210.882812 89.867188 Z M 210.882812 89.878906 " fill-opacity="1" fill-rule="nonzero"/><path fill="#ffffff" d="M 218.894531 84.421875 L 216.457031 84.421875 L 216.457031 83.785156 L 222.070312 83.785156 L 222.070312 84.421875 L 219.632812 84.421875 L 219.632812 90.71875 L 218.894531 90.71875 Z M 218.894531 84.421875 " fill-opacity="1" fill-rule="nonzero"/><path fill="#ffffff" d="M 227.984375 90.71875 L 226.398438 88.492188 C 226.222656 88.507812 226.039062 88.523438 225.84375 88.523438 L 223.984375 88.523438 L 223.984375 90.71875 L 223.246094 90.71875 L 223.246094 83.785156 L 225.84375 83.785156 C 227.613281 83.785156 228.679688 84.679688 228.679688 86.167969 C 228.679688 87.253906 228.109375 88.019531 227.097656 88.347656 L 228.792969 90.71875 Z M 227.945312 86.160156 C 227.945312 85.046875 227.210938 84.414062 225.820312 84.414062 L 223.976562 84.414062 L 223.976562 87.894531 L 225.820312 87.894531 C 227.210938 87.894531 227.945312 87.246094 227.945312 86.160156 Z M 227.945312 86.160156 " fill-opacity="1" fill-rule="nonzero"/><path fill="#ffffff" d="M 230.355469 87.753906 L 230.355469 83.78125 L 231.089844 83.78125 L 231.089844 87.722656 C 231.089844 89.371094 231.863281 90.125 233.214844 90.125 C 234.566406 90.125 235.347656 89.371094 235.347656 87.722656 L 235.347656 83.78125 L 236.066406 83.78125 L 236.066406 87.753906 C 236.066406 89.746094 234.996094 90.777344 233.214844 90.777344 C 231.4375 90.777344 230.359375 89.746094 230.359375 87.753906 Z M 230.355469 87.753906 " fill-opacity="1" fill-rule="nonzero"/><path fill="#ffffff" d="M 237.65625 87.253906 C 237.65625 85.222656 239.203125 83.722656 241.296875 83.722656 C 242.308594 83.722656 243.222656 84.0625 243.835938 84.734375 L 243.371094 85.199219 C 242.804688 84.621094 242.113281 84.375 241.316406 84.375 C 239.636719 84.375 238.378906 85.605469 238.378906 87.253906 C 238.378906 88.898438 239.636719 90.128906 241.316406 90.128906 C 242.109375 90.128906 242.804688 89.878906 243.371094 89.300781 L 243.835938 89.765625 C 243.222656 90.4375 242.308594 90.78125 241.285156 90.78125 C 239.203125 90.78125 237.65625 89.289062 237.65625 87.253906 Z M 237.65625 87.253906 " fill-opacity="1" fill-rule="nonzero"/><path fill="#ffffff" d="M 246.660156 84.421875 L 244.222656 84.421875 L 244.222656 83.785156 L 249.835938 83.785156 L 249.835938 84.421875 L 247.398438 84.421875 L 247.398438 90.71875 L 246.660156 90.71875 Z M 246.660156 84.421875 " fill-opacity="1" fill-rule="nonzero"/><path fill="#ffffff" d="M 251.007812 83.785156 L 251.742188 83.785156 L 251.742188 90.71875 L 251.007812 90.71875 Z M 251.007812 83.785156 " fill-opacity="1" fill-rule="nonzero"/><path fill="#ffffff" d="M 259.699219 83.785156 L 256.625 90.71875 L 255.898438 90.71875 L 252.824219 83.785156 L 253.617188 83.785156 L 256.277344 89.808594 L 258.957031 83.785156 Z M 259.699219 83.785156 " fill-opacity="1" fill-rule="nonzero"/><path fill="#ffffff" d="M 264.847656 88.867188 L 260.980469 88.867188 L 260.144531 90.71875 L 259.378906 90.71875 L 262.554688 83.785156 L 263.277344 83.785156 L 266.453125 90.71875 L 265.679688 90.71875 Z M 264.578125 88.269531 L 262.914062 84.546875 L 261.246094 88.269531 Z M 264.578125 88.269531 " fill-opacity="1" fill-rule="nonzero"/><path fill="#ffffff" d="M 266.9375 89.878906 L 267.226562 89.3125 C 267.722656 89.796875 268.605469 90.15625 269.515625 90.15625 C 270.816406 90.15625 271.382812 89.609375 271.382812 88.925781 C 271.382812 87.019531 267.105469 88.1875 267.105469 85.625 C 267.105469 84.609375 267.898438 83.722656 269.667969 83.722656 C 270.453125 83.722656 271.265625 83.949219 271.816406 84.339844 L 271.566406 84.921875 C 270.96875 84.539062 270.277344 84.34375 269.660156 84.34375 C 268.390625 84.34375 267.824219 84.910156 267.824219 85.601562 C 267.824219 87.503906 272.101562 86.355469 272.101562 88.878906 C 272.101562 89.902344 271.289062 90.769531 269.507812 90.769531 C 268.464844 90.769531 267.445312 90.40625 266.929688 89.867188 Z M 266.9375 89.878906 " fill-opacity="1" fill-rule="nonzero"/></svg>